<?xml version="1.0" standalone="no"?>
<!DOCTYPE svg PUBLIC "-//W3C//DTD SVG 20010904//EN"
 "http://www.w3.org/TR/2001/REC-SVG-20010904/DTD/svg10.dtd">
<svg version="1.0" xmlns="http://www.w3.org/2000/svg"
 width="700.000000pt" height="700.000000pt" viewBox="0 0 700.000000 700.000000"
 preserveAspectRatio="xMidYMid meet">
<metadata>
Created by potrace 1.14, written by Peter Selinger 2001-2017
</metadata>
<g transform="translate(0.000000,700.000000) scale(0.100000,-0.100000)"
fill="#000000" stroke="none">
<path d="M2316 5720 c-87 -27 -131 -135 -88 -220 30 -60 59 -71 328 -124 l251
-50 6 -85 c26 -355 257 -629 580 -688 145 -26 307 6 423 83 l54 36 62 -58 c68
-62 183 -123 283 -149 78 -20 242 -21 318 0 32 8 84 27 115 43 55 26 162 121
193 171 l16 25 284 -57 c156 -31 299 -57 317 -57 138 0 202 176 99 267 -31 27
-61 35 -420 107 -424 84 -431 85 -488 30 -16 -15 -38 -55 -49 -90 -37 -110
-108 -150 -250 -142 -86 5 -148 29 -205 79 -58 51 -75 100 -72 202 2 73 -1 89
-19 114 -51 69 -128 91 -200 57 -46 -22 -67 -55 -93 -140 -11 -39 -34 -90 -51
-112 -103 -143 -305 -143 -455 -1 -106 100 -149 243 -125 416 12 87 11 94 -9
137 -12 24 -34 52 -49 62 -22 15 -682 156 -716 153 -6 0 -24 -5 -40 -9z"/>
<path d="M1847 4735 c-235 -45 -450 -159 -622 -330 -152 -151 -255 -330 -312
-542 -25 -91 -27 -113 -27 -298 0 -187 2 -206 27 -300 58 -210 176 -406 336
-558 457 -435 1182 -433 1632 5 187 181 309 414 352 672 16 96 23 106 99 146
79 42 215 42 302 1 77 -38 146 -124 146 -183 0 -12 -7 -59 -15 -103 -19 -106
-19 -281 0 -391 68 -387 309 -703 668 -874 155 -74 270 -101 457 -107 237 -8
393 26 590 129 124 64 205 125 310 235 208 215 314 467 327 773 24 578 -367
1074 -949 1207 -101 23 -365 23 -466 0 -295 -67 -534 -217 -709 -444 -31 -40
-58 -73 -60 -73 -2 0 -25 18 -51 39 -155 129 -404 171 -606 103 l-56 -19 -10
41 c-104 411 -437 742 -857 853 -125 32 -380 41 -506 18z m458 -330 c226 -66
419 -223 524 -425 76 -146 102 -250 102 -416 0 -232 -77 -426 -235 -591 -174
-184 -383 -275 -631 -276 -185 -1 -333 43 -488 147 -341 226 -476 658 -327
1044 106 274 368 489 660 541 99 18 294 6 395 -24z m2725 -485 c424 -51 742
-384 775 -812 28 -350 -178 -695 -507 -847 -112 -52 -192 -71 -323 -78 -554
-27 -996 470 -901 1015 73 415 410 707 846 731 14 0 64 -4 110 -9z"/>
<path d="M1995 4010 c-107 -17 -182 -57 -261 -141 -159 -170 -160 -430 -2
-604 171 -188 474 -193 646 -11 62 65 97 126 116 201 28 104 15 218 -35 318
-84 166 -278 266 -464 237z m26 -169 c27 -26 49 -56 49 -66 0 -23 -92 -115
-115 -115 -10 0 -40 22 -66 49 -27 26 -49 56 -49 66 0 10 22 40 49 66 26 27
56 49 66 49 10 0 40 -22 66 -49z"/>
<path d="M4793 3441 c-158 -58 -262 -199 -271 -366 -14 -269 226 -475 488
-421 171 36 293 164 323 341 29 171 -67 351 -230 428 -60 28 -80 32 -163 35
-74 2 -107 -2 -147 -17z m89 -158 c26 -26 48 -55 48 -65 0 -31 -79 -108 -109
-108 -34 0 -111 76 -111 109 0 28 79 111 106 111 10 0 40 -21 66 -47z"/>
<path d="M3177 2500 c-118 -20 -214 -98 -270 -218 -64 -136 -46 -298 63 -570
90 -224 112 -253 212 -273 83 -17 104 -4 209 119 110 130 199 259 244 354 101
214 49 437 -123 531 -83 45 -244 72 -335 57z"/>
</g>
</svg>
