<svg version="1.1" id="Layer1" xmlns="http://www.w3.org/2000/svg" x="0" y="0" viewBox="0 0 295 295" style="enable-background:new 0 0 295 295" xml:space="preserve"><style>.st0{fill:#0d0d0d}.st1,.st2{fill:#c3a25d;stroke:#0d0d0d;stroke-width:16;stroke-linecap:round;stroke-linejoin:round;stroke-miterlimit:10}.st2{fill:none}.st5{fill:#ebebeb}</style><path class="st0" d="m132.67 253.52-3.74-.75a5.52 5.52 0 0 1-3.8-2.86c-2.02-3.91-12-23.95-9.86-34.66 2.47-12.36 12.06-18.75 24.42-16.28l1.87.37c11.91 2.38 17.51 11.37 14.97 24.05-2.12 10.6-17.09 26.7-18.79 28.5-1.3 1.39-3.21 2-5.07 1.63z"/><circle class="st1" cx="73.72" cy="144.05" r="52.88"/><circle class="st1" cx="221.06" cy="170.46" r="52.88"/><circle class="st0" cx="73.72" cy="144.05" r="22.95"/><circle class="st0" cx="220.78" cy="170.38" r="20.98"/><path class="st2" d="M128.12 144.25c12.62-14.27 39.12-8.96 42.07 10.96"/><path d="m122.89 54.42.04-.05c-7.89 39.44 41.33 53.29 48.18 19.08-5.16 25.81 37.8 34.35 42.68 9.94l.89-2.03" style="fill:#2eff74"/><path class="st2" d="m89.19 41.23 31.8 6.36c-7.89 39.44 41.33 53.29 48.18 19.08-5.16 25.81 37.8 34.35 42.68 9.94l35.87 7.17"/><path class="st5" d="m213.2 166.89-2.96-2.96a2.728 2.728 0 0 1 0-3.85l2.96-2.96a2.728 2.728 0 0 1 3.85 0l2.96 2.96a2.728 2.728 0 0 1 0 3.85l-2.96 2.96a2.71 2.71 0 0 1-3.85 0zM66.34 138.27l-2.96-2.96a2.728 2.728 0 0 1 0-3.85l2.96-2.96a2.728 2.728 0 0 1 3.85 0l2.96 2.96a2.728 2.728 0 0 1 0 3.85l-2.96 2.96a2.71 2.71 0 0 1-3.85 0z"/></svg>